<svg version="1.1" id="Layer_1" xmlns="http://www.w3.org/2000/svg" xmlns:xlink="http://www.w3.org/1999/xlink" x="0px" y="0px"
	 width="100%" viewBox="0 0 125 111" enable-background="new 0 0 125 111" xml:space="preserve">
<path fill="#FFFFFF" opacity="1.000000" stroke="none" 
	d="
M81.000000,112.000000 
	C54.000000,112.000000 27.500000,112.000000 1.000000,112.000000 
	C1.000000,75.000000 1.000000,38.000000 1.000000,1.000000 
	C42.666668,1.000000 84.333336,1.000000 126.000000,1.000000 
	C126.000000,38.000000 126.000000,75.000000 126.000000,112.000000 
	C111.166664,112.000000 96.333336,112.000000 81.000000,112.000000 
M25.917328,84.423347 
	C23.481272,88.994217 23.916649,92.243073 27.413149,92.534172 
	C29.424463,92.701622 31.961193,91.176163 33.659767,89.713882 
	C42.961807,81.705933 52.114365,73.522400 61.232250,65.303764 
	C63.615635,63.155430 66.280182,60.987892 67.771141,58.258610 
	C69.981438,54.212551 71.051254,49.562229 72.978592,45.338917 
	C76.989815,36.549244 81.344780,27.915541 85.289307,19.097332 
	C85.861336,17.818541 85.417572,15.526712 84.554886,14.362243 
	C83.984749,13.592657 81.260963,13.339376 80.482925,14.003983 
	C78.084015,16.053160 75.392891,18.327581 74.203636,21.108276 
	C71.673065,27.025244 69.328850,33.186771 68.142639,39.480705 
	C65.380539,54.136024 55.955078,63.103371 44.041843,70.569389 
	C37.776188,74.496071 32.043613,79.273369 25.917328,84.423347 
M65.059219,68.458176 
	C56.785217,77.055634 48.501175,85.643463 40.242611,94.255730 
	C37.312359,97.311470 39.390560,99.919785 41.889198,101.014038 
	C43.361717,101.658913 46.464039,100.421562 47.825211,99.038513 
	C49.736145,97.096870 50.414753,94.000130 52.142303,91.808861 
	C56.419544,86.383476 60.536366,80.698669 65.568558,76.036568 
	C71.287796,70.737961 78.488396,66.974648 80.342636,58.413445 
	C80.801567,56.294537 81.924744,54.195728 83.182922,52.395420 
	C88.256096,45.136227 93.518990,38.009911 98.672424,30.806341 
	C100.140511,28.754225 102.633331,26.667398 99.530235,24.099522 
	C96.646797,21.713419 93.283348,22.697187 91.680656,25.109716 
	C86.767685,32.505188 82.140930,40.140949 78.057777,48.022552 
	C74.421768,55.041065 73.082718,63.381210 65.059219,68.458176 
M55.098831,39.465961 
	C54.735035,40.543926 54.036560,41.629715 54.061554,42.698589 
	C54.228352,49.832630 49.645473,53.819450 44.259697,56.835739 
	C35.605373,61.682564 26.648708,65.986511 17.873362,70.621269 
	C11.517434,73.978195 11.416071,75.557785 17.269674,80.136406 
	C22.738169,76.985275 28.405844,73.906006 33.878742,70.512596 
	C39.230766,67.194138 44.215519,63.260292 49.672676,60.140980 
	C55.018738,57.085163 59.015099,53.644413 60.192921,47.051342 
	C61.348270,40.584053 63.957207,34.390423 65.463875,27.967768 
	C66.816826,22.200359 67.539009,16.284985 68.546700,10.392462 
	C58.496864,9.142317 59.482853,11.255982 58.142513,17.872688 
	C56.752361,24.735336 56.457897,31.819937 55.098831,39.465961 
M20.589069,59.938522 
	C25.273556,58.295197 29.890100,56.411770 34.657833,55.062634 
	C42.577873,52.821480 48.140301,48.268921 48.972412,39.833813 
	C49.767506,31.773973 49.847855,23.625422 49.785812,15.519359 
	C49.776775,14.338243 47.187050,12.198449 45.864643,12.253696 
	C44.214821,12.322623 41.666950,13.924095 41.246445,15.369842 
	C40.482224,17.997337 40.934151,20.999851 40.998646,23.843134 
	C41.200710,32.751606 33.161884,45.136501 24.605093,48.987164 
	C20.214674,50.962902 15.853251,53.012001 11.400967,54.838390 
	C8.101613,56.191830 8.210779,58.985950 9.698787,60.828068 
	C10.791903,62.181316 13.638420,62.529495 15.707857,62.540878 
	C17.130516,62.548698 18.560566,61.212105 20.589069,59.938522 
M62.981308,88.526245 
	C61.016701,91.908638 58.936836,95.230492 57.119465,98.690224 
	C55.250839,102.247536 56.349709,105.846840 59.659897,106.793060 
	C63.639149,107.930542 64.607681,104.642487 65.956779,102.011986 
	C68.623474,96.812416 70.809723,91.263519 74.153183,86.537140 
	C79.717384,78.671455 86.859161,71.836502 91.805939,63.643326 
	C96.731003,55.486122 102.060905,48.201015 110.029747,42.906361 
	C111.019112,42.249008 112.069748,40.367027 111.793915,39.437840 
	C111.402023,38.117680 109.925888,36.415810 108.696205,36.216827 
	C106.957695,35.935501 104.693176,36.388790 103.223457,37.376324 
	C94.585205,43.180519 89.570618,52.186806 85.389687,61.083431 
	C82.259163,67.744896 77.616806,72.499512 72.914436,77.576538 
	C69.731766,81.012794 66.623535,84.517998 62.981308,88.526245 
M83.924957,83.377869 
	C78.598053,88.811325 75.892334,95.322739 76.017082,102.941238 
	C76.075951,106.535988 77.731651,107.280838 80.899155,105.597656 
	C84.849525,103.498474 84.363914,99.530609 85.479004,96.114586 
	C89.695557,83.197357 97.743179,72.994781 108.504059,64.844200 
	C111.265228,62.752811 114.259117,60.907757 116.727989,58.517654 
	C117.922707,57.361057 118.149628,55.204773 118.814728,53.501110 
	C117.029907,53.076897 114.963074,51.868172 113.517532,52.387794 
	C110.262726,53.557796 106.546783,54.911724 104.384422,57.385010 
	C97.280533,65.510414 90.785767,74.168358 83.924957,83.377869 
M120.122231,67.063744 
	C118.680145,67.257103 117.174530,67.247894 115.806335,67.676895 
	C107.266220,70.354683 101.286537,76.265633 97.093658,83.813873 
	C94.786926,87.966591 93.170113,92.676483 92.236130,97.334450 
	C91.847984,99.270203 94.052948,101.725914 95.078728,103.945175 
	C96.914726,102.267296 99.286690,100.898659 100.471550,98.845085 
	C102.714493,94.957710 103.662941,90.224205 106.282135,86.679314 
	C109.278923,82.623367 113.565613,79.535294 117.182541,75.917404 
	C119.496986,73.602356 124.213364,72.203613 120.122231,67.063744 
z"/>
<path fill="#00C6FF" opacity="1.000000" stroke="none" 
	d="
M25.993826,84.044960 
	C32.043613,79.273369 37.776188,74.496071 44.041843,70.569389 
	C55.955078,63.103371 65.380539,54.136024 68.142639,39.480705 
	C69.328850,33.186771 71.673065,27.025244 74.203636,21.108276 
	C75.392891,18.327581 78.084015,16.053160 80.482925,14.003983 
	C81.260963,13.339376 83.984749,13.592657 84.554886,14.362243 
	C85.417572,15.526712 85.861336,17.818541 85.289307,19.097332 
	C81.344780,27.915541 76.989815,36.549244 72.978592,45.338917 
	C71.051254,49.562229 69.981438,54.212551 67.771141,58.258610 
	C66.280182,60.987892 63.615635,63.155430 61.232250,65.303764 
	C52.114365,73.522400 42.961807,81.705933 33.659767,89.713882 
	C31.961193,91.176163 29.424463,92.701622 27.413149,92.534172 
	C23.916649,92.243073 23.481272,88.994217 25.993826,84.044960 
z"/>
<path fill="#FFAD00" opacity="1.000000" stroke="none" 
	d="
M65.374405,68.259567 
	C73.082718,63.381210 74.421768,55.041065 78.057777,48.022552 
	C82.140930,40.140949 86.767685,32.505188 91.680656,25.109716 
	C93.283348,22.697187 96.646797,21.713419 99.530235,24.099522 
	C102.633331,26.667398 100.140511,28.754225 98.672424,30.806341 
	C93.518990,38.009911 88.256096,45.136227 83.182922,52.395420 
	C81.924744,54.195728 80.801567,56.294537 80.342636,58.413445 
	C78.488396,66.974648 71.287796,70.737961 65.568558,76.036568 
	C60.536366,80.698669 56.419544,86.383476 52.142303,91.808861 
	C50.414753,94.000130 49.736145,97.096870 47.825211,99.038513 
	C46.464039,100.421562 43.361717,101.658913 41.889198,101.014038 
	C39.390560,99.919785 37.312359,97.311470 40.242611,94.255730 
	C48.501175,85.643463 56.785217,77.055634 65.374405,68.259567 
z"/>
<path fill="#4AE700" opacity="1.000000" stroke="none" 
	d="
M55.391533,39.136711 
	C56.457897,31.819937 56.752361,24.735336 58.142513,17.872688 
	C59.482853,11.255982 58.496864,9.142317 68.546700,10.392462 
	C67.539009,16.284985 66.816826,22.200359 65.463875,27.967768 
	C63.957207,34.390423 61.348270,40.584053 60.192921,47.051342 
	C59.015099,53.644413 55.018738,57.085163 49.672676,60.140980 
	C44.215519,63.260292 39.230766,67.194138 33.878742,70.512596 
	C28.405844,73.906006 22.738169,76.985275 17.269674,80.136406 
	C11.416071,75.557785 11.517434,73.978195 17.873362,70.621269 
	C26.648708,65.986511 35.605373,61.682564 44.259697,56.835739 
	C49.645473,53.819450 54.228352,49.832630 54.061554,42.698589 
	C54.036560,41.629715 54.735035,40.543926 55.391533,39.136711 
z"/>
<path fill="#FFAD00" opacity="1.000000" stroke="none" 
	d="
M20.288191,60.207474 
	C18.560566,61.212105 17.130516,62.548698 15.707857,62.540878 
	C13.638420,62.529495 10.791903,62.181316 9.698787,60.828068 
	C8.210779,58.985950 8.101613,56.191830 11.400967,54.838390 
	C15.853251,53.012001 20.214674,50.962902 24.605093,48.987164 
	C33.161884,45.136501 41.200710,32.751606 40.998646,23.843134 
	C40.934151,20.999851 40.482224,17.997337 41.246445,15.369842 
	C41.666950,13.924095 44.214821,12.322623 45.864643,12.253696 
	C47.187050,12.198449 49.776775,14.338243 49.785812,15.519359 
	C49.847855,23.625422 49.767506,31.773973 48.972412,39.833813 
	C48.140301,48.268921 42.577873,52.821480 34.657833,55.062634 
	C29.890100,56.411770 25.273556,58.295197 20.288191,60.207474 
z"/>
<path fill="#00C6FF" opacity="1.000000" stroke="none" 
	d="
M63.231659,88.259308 
	C66.623535,84.517998 69.731766,81.012794 72.914436,77.576538 
	C77.616806,72.499512 82.259163,67.744896 85.389687,61.083431 
	C89.570618,52.186806 94.585205,43.180519 103.223457,37.376324 
	C104.693176,36.388790 106.957695,35.935501 108.696205,36.216827 
	C109.925888,36.415810 111.402023,38.117680 111.793915,39.437840 
	C112.069748,40.367027 111.019112,42.249008 110.029747,42.906361 
	C102.060905,48.201015 96.731003,55.486122 91.805939,63.643326 
	C86.859161,71.836502 79.717384,78.671455 74.153183,86.537140 
	C70.809723,91.263519 68.623474,96.812416 65.956779,102.011986 
	C64.607681,104.642487 63.639149,107.930542 59.659897,106.793060 
	C56.349709,105.846840 55.250839,102.247536 57.119465,98.690224 
	C58.936836,95.230492 61.016701,91.908638 63.231659,88.259308 
z"/>
<path fill="#4AE700" opacity="1.000000" stroke="none" 
	d="
M83.990952,82.999779 
	C90.785767,74.168358 97.280533,65.510414 104.384422,57.385010 
	C106.546783,54.911724 110.262726,53.557796 113.517532,52.387794 
	C114.963074,51.868172 117.029907,53.076897 118.814728,53.501110 
	C118.149628,55.204773 117.922707,57.361057 116.727989,58.517654 
	C114.259117,60.907757 111.265228,62.752811 108.504059,64.844200 
	C97.743179,72.994781 89.695557,83.197357 85.479004,96.114586 
	C84.363914,99.530609 84.849525,103.498474 80.899155,105.597656 
	C77.731651,107.280838 76.075951,106.535988 76.017082,102.941238 
	C75.892334,95.322739 78.598053,88.811325 83.990952,82.999779 
z"/>
<path fill="#FFAD00" opacity="1.000000" stroke="none" 
	d="
M120.492340,67.231079 
	C124.213364,72.203613 119.496986,73.602356 117.182541,75.917404 
	C113.565613,79.535294 109.278923,82.623367 106.282135,86.679314 
	C103.662941,90.224205 102.714493,94.957710 100.471550,98.845085 
	C99.286690,100.898659 96.914726,102.267296 95.078728,103.945175 
	C94.052948,101.725914 91.847984,99.270203 92.236130,97.334450 
	C93.170113,92.676483 94.786926,87.966591 97.093658,83.813873 
	C101.286537,76.265633 107.266220,70.354683 115.806335,67.676895 
	C117.174530,67.247894 118.680145,67.257103 120.492340,67.231079 
z"/>
</svg>
