<?xml version="1.0" standalone="no"?>
<!DOCTYPE svg PUBLIC "-//W3C//DTD SVG 20010904//EN"
 "http://www.w3.org/TR/2001/REC-SVG-20010904/DTD/svg10.dtd">
<svg version="1.0" xmlns="http://www.w3.org/2000/svg"
 width="125.000000pt" height="125.000000pt" viewBox="0 0 125.000000 125.000000"
 preserveAspectRatio="xMidYMid meet">
<metadata>
Created by potrace 1.14, written by Peter Selinger 2001-2017
</metadata>
<g transform="translate(0.000000,125.000000) scale(0.100000,-0.100000)"
fill="#000000" stroke="none">
<path d="M590 1081 c-10 -20 -28 -119 -36 -206 -3 -27 -9 -66 -14 -85 -5 -19
-11 -47 -14 -61 -3 -15 -18 -40 -33 -56 -30 -32 -29 -31 -217 -127 -71 -36
-135 -71 -143 -77 -18 -16 -13 -59 9 -73 19 -12 94 21 175 76 23 15 46 28 52
28 6 0 11 3 11 8 1 4 31 25 67 47 72 44 143 106 143 126 0 7 4 26 9 43 59 198
85 318 77 351 -5 21 -12 25 -41 25 -24 0 -37 -6 -45 -19z"/>
<path d="M428 1073 c-20 -5 -42 -74 -33 -103 7 -21 -11 -102 -32 -143 -22 -43
-108 -121 -151 -136 -20 -7 -58 -23 -85 -35 -42 -18 -47 -24 -47 -52 0 -48 40
-58 107 -25 21 10 56 24 78 30 41 13 76 26 107 42 10 5 23 9 29 9 12 0 58 52
76 87 7 14 13 78 14 169 2 165 -1 173 -63 157z"/>
<path d="M775 1046 c-26 -24 -72 -123 -86 -186 -17 -79 -64 -197 -92 -235 -30
-40 -136 -125 -155 -125 -6 0 -12 -3 -14 -7 -4 -11 -75 -63 -84 -63 -4 0 -14
-7 -23 -15 -9 -9 -30 -28 -48 -43 -39 -33 -51 -73 -28 -96 9 -9 25 -16 35 -16
10 0 62 43 117 96 54 52 127 116 163 141 87 62 116 95 135 156 18 56 31 91 48
122 6 11 19 38 29 60 11 22 34 71 53 108 40 78 42 88 17 110 -25 23 -36 21
-67 -7z"/>
<path d="M903 933 c-15 -21 -30 -40 -34 -43 -3 -3 -17 -25 -30 -50 -14 -25
-35 -61 -46 -80 -11 -19 -32 -68 -48 -109 -22 -57 -39 -84 -73 -115 -257 -231
-327 -324 -271 -359 21 -13 69 -1 69 18 0 8 5 15 10 15 6 0 10 5 10 11 0 12
55 93 85 124 11 12 31 34 45 51 14 16 43 43 65 59 57 43 94 84 101 112 10 38
62 142 90 178 13 18 24 36 24 41 0 5 9 16 20 24 11 8 20 18 20 21 0 4 16 24
35 43 40 41 43 56 17 79 -30 27 -58 21 -89 -20z"/>
<path d="M1035 825 c-44 -23 -155 -153 -155 -183 0 -5 -7 -15 -15 -22 -8 -7
-20 -31 -27 -53 -9 -29 -39 -68 -108 -139 -93 -96 -148 -170 -172 -236 -10
-27 -9 -34 7 -51 20 -23 57 -28 72 -8 6 6 16 30 23 52 15 49 53 117 83 147 38
39 126 148 144 179 10 16 21 29 25 29 4 0 8 7 8 16 0 33 107 158 167 195 41
26 44 61 8 77 -31 14 -24 15 -60 -3z"/>
<path d="M1108 669 c-16 -6 -28 -15 -28 -20 0 -5 -6 -9 -13 -9 -20 0 -93 -74
-123 -127 -16 -26 -40 -60 -54 -74 -14 -14 -32 -36 -40 -48 -8 -13 -21 -30
-28 -37 -32 -34 -72 -130 -72 -175 0 -89 66 -70 96 28 27 91 61 151 124 227
42 49 94 103 105 107 6 2 32 20 58 39 41 30 48 39 45 65 -3 34 -24 41 -70 24z"/>
<path d="M1095 497 c-94 -70 -168 -175 -181 -259 -7 -44 10 -88 35 -88 21 0
61 44 61 66 0 45 123 214 155 214 19 0 55 45 55 68 0 20 -5 22 -47 21 -33 0
-57 -7 -78 -22z"/>
</g>
</svg>
